<?xml version="1.0" standalone="no"?><!DOCTYPE svg PUBLIC "-//W3C//DTD SVG 1.1//EN" "http://www.w3.org/Graphics/SVG/1.1/DTD/svg11.dtd"><svg t="1617783052449" class="icon" viewBox="0 0 1024 1024" version="1.1" xmlns="http://www.w3.org/2000/svg" p-id="15712" xmlns:xlink="http://www.w3.org/1999/xlink" width="128" height="128"><defs><style type="text/css">:not([class*="icon"]):not(.fa):not(.fas):not(i) { font-family: "PingFang SC", "Heiti SC", myfont, "Microsoft YaHei", "Source Han Sans SC", "Noto Sans CJK SC", "HanHei SC", sans-serif, icomoon, Icons, brand-icons, FontAwesome, "Material Icons", "Material Icons Extended", "Glyphicons Halflings" !important; }
* { font-family: "PingFang SC", "Microsoft YaHei"; font-weight: bold !important; }
</style></defs><path d="M892.928 128q28.672 0 48.64 19.968t19.968 48.64v52.224q0 28.672-19.968 48.64t-48.64 19.968H133.12q-28.672 0-48.64-19.968t-19.968-48.64v-52.224q0-28.672 19.968-48.64T133.12 128h759.808z m0 320.512q28.672 0 48.64 19.968t19.968 48.64v52.224q0 28.672-19.968 48.64t-48.64 19.968H133.12q-28.672 0-48.64-19.968t-19.968-48.64V517.12q0-28.672 19.968-48.64t48.64-19.968h759.808z m0 320.512q28.672 0 48.64 19.968t19.968 48.64v52.224q0 28.672-19.968 48.64t-48.64 19.968H133.12q-28.672 0-48.64-19.968t-19.968-48.64v-52.224q0-28.672 19.968-48.64t48.64-19.968h759.808z" fill="#008D56" p-id="15713"></path></svg>