<?xml version="1.0" standalone="no"?><!DOCTYPE svg PUBLIC "-//W3C//DTD SVG 1.1//EN" "http://www.w3.org/Graphics/SVG/1.1/DTD/svg11.dtd"><svg t="1617783126215" class="icon" viewBox="0 0 1024 1024" version="1.1" xmlns="http://www.w3.org/2000/svg" p-id="17160" xmlns:xlink="http://www.w3.org/1999/xlink" width="128" height="128"><defs><style type="text/css">:not([class*="icon"]):not(.fa):not(.fas):not(i) { font-family: "PingFang SC", "Heiti SC", myfont, "Microsoft YaHei", "Source Han Sans SC", "Noto Sans CJK SC", "HanHei SC", sans-serif, icomoon, Icons, brand-icons, FontAwesome, "Material Icons", "Material Icons Extended", "Glyphicons Halflings" !important; }
* { font-family: "PingFang SC", "Microsoft YaHei"; font-weight: bold !important; }
</style></defs><path d="M808.407 455.68v112.64c0 8.479-6.871 15.36-15.36 15.36h-208.21v208.21c0 8.489-6.881 15.36-15.36 15.36h-112.64c-8.479 0-15.36-6.871-15.36-15.36V583.68h-208.21c-8.489 0-15.36-6.881-15.36-15.36V455.68c0-8.479 6.871-15.36 15.36-15.36h208.21V232.11c0-8.489 6.881-15.36 15.36-15.36h112.64c8.479 0 15.36 6.871 15.36 15.36v208.21h208.21c8.489 0 15.36 6.881 15.36 15.36z" fill="#19B06A" p-id="17161"></path></svg>