<?xml version="1.0" standalone="no"?><!DOCTYPE svg PUBLIC "-//W3C//DTD SVG 1.1//EN" "http://www.w3.org/Graphics/SVG/1.1/DTD/svg11.dtd"><svg t="1617794363757" class="icon" viewBox="0 0 1024 1024" version="1.1" xmlns="http://www.w3.org/2000/svg" p-id="3992" xmlns:xlink="http://www.w3.org/1999/xlink" width="128" height="128"><defs><style type="text/css">:not([class*="icon"]):not(.fa):not(.fas):not(i) { font-family: "PingFang SC", "Heiti SC", myfont, "Microsoft YaHei", "Source Han Sans SC", "Noto Sans CJK SC", "HanHei SC", sans-serif, icomoon, Icons, brand-icons, FontAwesome, "Material Icons", "Material Icons Extended", "Glyphicons Halflings" !important; }
* { font-family: "PingFang SC", "Microsoft YaHei"; font-weight: bold !important; }
</style></defs><path d="M921.7 165.4l-1.3-29.5-29.3-3.7C775.7 117.7 659.9 120.7 547 141c-81.5 14.7-165.8 29.8-238 58.3C223.3 233 165.6 281.7 132.7 348c-25.3 50.9-35.9 112.5-29.9 173.6 5.8 59.2 26.3 114.2 59.6 159.8-1.7 3.2-3.4 6.5-5 9.7-27.7 54.7-42.4 108.6-43.7 160.3-0.2 8.3 0 16 0.4 22.9 1.4 23 24.3 38.4 46.1 31 15-5 24.6-19.5 23.7-35.3-0.4-6.5-0.5-14.1 0-22.7 1.3-25.3 7.7-64.1 29.6-111.6 30.9 25.5 67.2 45 108.5 58 43.7 13.8 82.6 17.1 107.5 17.4h4.7c74.5 0 147-24.5 215.5-72.9l21.4-15.1-8.5-24.8c-2.8-8.3-4.3-17.1-4.3-26 0-30 16.8-57.5 42.8-70.1l30.6-14.9-14-31c-5.7-12.7-8.6-26.4-8.6-40.6 0-52.7 41-95.5 91.3-95.5 13.9 0 27.2 3.2 39.5 9.4l36.2 18.2 12.7-38.5c25.5-76.7 36.6-158.8 32.9-243.9z m-89.2 188.3c-10.5-2.2-21.2-3.3-32.1-3.3-88.9 0-161.3 74.2-161.3 165.5 0 13.7 1.6 27.2 4.8 40.3-12.9 10.2-24 22.6-32.9 36.8-14.9 23.7-22.7 51.2-22.7 79.5 0 7.3 0.5 14.5 1.5 21.6-51.7 32.1-105.3 47.9-159.4 47.2-35.3-0.5-117.8-8.5-181.8-67.6 65.8-98 202.3-229.6 485.1-365.6 17.3-8.3 24.7-28.9 16.6-46.3-8.2-17.7-29.4-25.3-47-16.8-148.8 71.5-271.7 148.4-365.7 228.6-54.2 46.3-99.1 93.9-134.1 142.2-39.3-71.5-43.7-165.2-8.2-236.7 25.3-50.8 69.5-87.3 139.3-114.8 65.7-25.9 146.5-40.4 224.7-54.5 61.9-11.1 124.7-16.7 187.9-16.7 35 0 70.1 1.7 105.2 5.1-0.1 53.7-6.8 105.7-19.9 155.5z" p-id="3993"></path><path d="M313.4 299.7c-39.3 0-71.2 32-71.2 71.4s31.9 71.4 71.2 71.4 71.2-32 71.2-71.4-31.9-71.4-71.2-71.4z m0 87.8c-8.9 0-16.2-7.4-16.2-16.4s7.3-16.4 16.2-16.4 16.2 7.4 16.2 16.4-7.2 16.4-16.2 16.4zM426.7 555.3c-40.8 0-74.1 33.3-74.1 74.3s33.2 74.3 74.1 74.3 74.1-33.3 74.1-74.3-33.2-74.3-74.1-74.3z m0 93.5c-10.5 0-19.1-8.6-19.1-19.3s8.5-19.3 19.1-19.3 19.1 8.6 19.1 19.3-8.6 19.3-19.1 19.3zM557.1 444c-28.9 0-52.4 23.6-52.4 52.5s23.5 52.5 52.4 52.5 52.4-23.6 52.4-52.5S586 444 557.1 444z m0 65c-6.8 0-12.4-5.6-12.4-12.5s5.5-12.5 12.4-12.5 12.4 5.6 12.4 12.5-5.6 12.5-12.4 12.5z" p-id="3994"></path></svg>