<?xml version="1.0" standalone="no"?><!DOCTYPE svg PUBLIC "-//W3C//DTD SVG 1.1//EN" "http://www.w3.org/Graphics/SVG/1.1/DTD/svg11.dtd"><svg t="1617782848983" class="icon" viewBox="0 0 1024 1024" version="1.1" xmlns="http://www.w3.org/2000/svg" p-id="3911" xmlns:xlink="http://www.w3.org/1999/xlink" width="128" height="128"><defs><style type="text/css">:not([class*="icon"]):not(.fa):not(.fas):not(i) { font-family: "PingFang SC", "Heiti SC", myfont, "Microsoft YaHei", "Source Han Sans SC", "Noto Sans CJK SC", "HanHei SC", sans-serif, icomoon, Icons, brand-icons, FontAwesome, "Material Icons", "Material Icons Extended", "Glyphicons Halflings" !important; }
* { font-family: "PingFang SC", "Microsoft YaHei"; font-weight: bold !important; }
</style></defs><path d="M715.264734 411.163488h0.011288l-0.079021-0.124176a225.988932 225.988932 0 0 0-16.458957-28.250027l-107.231573-183.972308h-0.056443c-11.367743-32.996935-42.597994-56.742763-79.455672-56.742762-36.852034 0-68.093573 23.745827-79.450028 56.742762h-0.067732L325.278889 382.749774a226.005865 226.005865 0 0 0-16.52669 28.362915l-0.033866 0.045155h0.005645a225.159211 225.159211 0 0 0-22.870952 99.154492c0 119.762055 93.12067 217.714298 210.89591 225.565605v130.813714a15.239775 15.239775 0 0 0 30.47955 0v-130.813714c117.780884-7.851306 210.901554-105.809194 210.901555-225.565605a225.193077 225.193077 0 0 0-22.865307-99.148848z m-188.030603 323.670246a15.239775 15.239775 0 0 0-30.47955 0V294.720317a15.239775 15.239775 0 0 1 30.47955 0v440.113417z" fill="#15AF72" p-id="3912"></path></svg>