<?xml version="1.0" standalone="no"?><!DOCTYPE svg PUBLIC "-//W3C//DTD SVG 1.1//EN" "http://www.w3.org/Graphics/SVG/1.1/DTD/svg11.dtd"><svg t="1617794928585" class="icon" viewBox="0 0 1024 1024" version="1.1" xmlns="http://www.w3.org/2000/svg" p-id="16628" xmlns:xlink="http://www.w3.org/1999/xlink" width="128" height="128"><defs><style type="text/css">:not([class*="icon"]):not(.fa):not(.fas):not(i) { font-family: "PingFang SC", "Heiti SC", myfont, "Microsoft YaHei", "Source Han Sans SC", "Noto Sans CJK SC", "HanHei SC", sans-serif, icomoon, Icons, brand-icons, FontAwesome, "Material Icons", "Material Icons Extended", "Glyphicons Halflings" !important; }
* { font-family: "PingFang SC", "Microsoft YaHei"; font-weight: bold !important; }
</style></defs><path d="M992 577.6a36.16 36.16 0 0 1-11.52 26.56 36.48 36.48 0 0 1-26.88 10.88h-134.4a333.76 333.76 0 0 1-40.32 169.92l124.8 122.24a34.88 34.88 0 0 1 11.52 26.24 34.88 34.88 0 0 1-11.52 26.24 35.84 35.84 0 0 1-26.88 11.2 35.84 35.84 0 0 1-26.88-11.2l-119.04-115.2-8.96 7.68c-3.84 3.2-12.48 8.64-25.28 16.64a382.08 382.08 0 0 1-38.72 21.44 312.32 312.32 0 0 1-49.28 16.96 240 240 0 0 1-58.24 7.36V390.72h-76.8v524.16a243.52 243.52 0 0 1-60.8-7.68 274.88 274.88 0 0 1-52.48-19.2q-21.76-11.52-39.36-23.04a231.36 231.36 0 0 1-26.24-18.88l-8.96-8.32-109.76 121.28a40.32 40.32 0 0 1-28.8 12.16 40.32 40.32 0 0 1-25.92-9.28 36.8 36.8 0 0 1-11.84-27.2 37.12 37.12 0 0 1 9.28-27.2l120.96-132.8a340.8 340.8 0 0 1-34.24-160h-134.4a36.48 36.48 0 0 1-26.88-10.88 36.16 36.16 0 0 1-11.52-26.56 35.52 35.52 0 0 1 11.52-26.24 36.8 36.8 0 0 1 26.88-11.2h134.4v-171.52L101.76 266.88a34.88 34.88 0 0 1-11.52-26.24 34.88 34.88 0 0 1 11.52-26.24 37.76 37.76 0 0 1 53.76 0l104 101.12h506.24l103.68-101.12a38.08 38.08 0 0 1 54.08 0 34.88 34.88 0 0 1 11.52 26.24 34.88 34.88 0 0 1-11.52 26.24l-103.68 101.44v171.84h134.4a36.8 36.8 0 0 1 26.88 11.2 35.52 35.52 0 0 1 11.52 26.24zM704 240.64H320a177.92 177.92 0 0 1 56-132.48A187.84 187.84 0 0 1 512 53.44a186.56 186.56 0 0 1 135.68 54.72A178.24 178.24 0 0 1 704 240.64z m0 0" p-id="16629"></path></svg>